HIERARCHY
ROOT hip
{
  OFFSET 0 90.174 2.4664
  CHANNELS 6 Xposition Yposition Zposition Zrotation Xrotation Yrotation
  JOINT abdomen
  {
    OFFSET 0 -1.186 -1.5018
    CHANNELS 6 Xposition Yposition Zposition Zrotation Xrotation Yrotation
    JOINT abdomen2
    {
      OFFSET 0 9.964 0.2134
      CHANNELS 6 Xposition Yposition Zposition Zrotation Xrotation Yrotation
      JOINT chest
      {
        OFFSET 0 13.134 -3.2573
        CHANNELS 6 Xposition Yposition Zposition Zrotation Xrotation Yrotation
        JOINT neck
        {
          OFFSET 0 20.686 -1.6905
          CHANNELS 6 Xposition Yposition Zposition Zrotation Xrotation Yrotation
          JOINT head
          {
            OFFSET 0 7.238 -0.1237
            CHANNELS 6 Xposition Yposition Zposition Zrotation Xrotation Yrotation
            End Site
            {
              OFFSET 0 0 0
            }
          }
        }
        JOINT lCollar
        {
          OFFSET 1.7069 20.075 5.0056
          CHANNELS 6 Xposition Yposition Zposition Zrotation Xrotation Yrotation
          JOINT lShldr
          {
            OFFSET 13.6458 -0.047 -4.849
            CHANNELS 6 Xposition Yposition Zposition Zrotation Xrotation Yrotation
            JOINT lForeArm
            {
              OFFSET 28.3255 -0.9759 2.2888
              CHANNELS 6 Xposition Yposition Zposition Zrotation Xrotation Yrotation
              JOINT lHand
              {
                OFFSET 22.1583 -0.53 10.8316
                CHANNELS 6 Xposition Yposition Zposition Zrotation Xrotation Yrotation
                JOINT lThumb1
                {
                  OFFSET 0.786 0.112 2.5817
                  CHANNELS 6 Xposition Yposition Zposition Zrotation Xrotation Yrotation
                  JOINT lThumb2
                  {
                    OFFSET 0.3601 -0.878 4.2331
                    CHANNELS 6 Xposition Yposition Zposition Zrotation Xrotation Yrotation
                    JOINT lThumb2_End
                    {
                      OFFSET 1.8127 -1.216 2.2227
                      CHANNELS 6 Xposition Yposition Zposition Zrotation Xrotation Yrotation
                      End Site
                      {
                        OFFSET 0.0181 -0.0122 0.0222
                      }
                    }
                  }
                }
                JOINT lCarpal1
                {
                  OFFSET 0.9571 1.114 1.7695
                  CHANNELS 6 Xposition Yposition Zposition Zrotation Xrotation Yrotation
                  JOINT lIndex1
                  {
                    OFFSET 4.1246 0.487 4.1451
                    CHANNELS 6 Xposition Yposition Zposition Zrotation Xrotation Yrotation
                    JOINT lIndex2
                    {
                      OFFSET 3.4052 -1.454 2.7682
                      CHANNELS 6 Xposition Yposition Zposition Zrotation Xrotation Yrotation
                      JOINT lIndex2_End
                      {
                        OFFSET 1.4531 -1.795 1.2713
                        CHANNELS 6 Xposition Yposition Zposition Zrotation Xrotation Yrotation
                        End Site
                        {
                          OFFSET 0.0145 -0.0179 0.0127
                        }
                      }
                    }
                  }
                  JOINT lMid1
                  {
                    OFFSET 5.6954 0.21 2.1184
                    CHANNELS 6 Xposition Yposition Zposition Zrotation Xrotation Yrotation
                    JOINT lMid2
                    {
                      OFFSET 3.9766 -1.54 2.3863
                      CHANNELS 6 Xposition Yposition Zposition Zrotation Xrotation Yrotation
                      JOINT lMid2_End
                      {
                        OFFSET 1.4042 -1.926 1.125
                        CHANNELS 6 Xposition Yposition Zposition Zrotation Xrotation Yrotation
                        End Site
                        {
                          OFFSET 0.014 -0.0193 0.0113
                        }
                      }
                    }
                  }
                }
                JOINT lCarpal2
                {
                  OFFSET 2.0956 0.66 -0.3894
                  CHANNELS 6 Xposition Yposition Zposition Zrotation Xrotation Yrotation
                  JOINT lRing1
                  {
                    OFFSET 5.0395 -0.09 2.4971
                    CHANNELS 6 Xposition Yposition Zposition Zrotation Xrotation Yrotation
                    JOINT lRing2
                    {
                      OFFSET 3.7921 -1.552 1.4806
                      CHANNELS 6 Xposition Yposition Zposition Zrotation Xrotation Yrotation
                      JOINT lRing2_End
                      {
                        OFFSET 1.4655 -1.808 0.9609
                        CHANNELS 6 Xposition Yposition Zposition Zrotation Xrotation Yrotation
                        End Site
                        {
                          OFFSET 0.0147 -0.0181 0.0096
                        }
                      }
                    }
                  }
                  JOINT lPinky1
                  {
                    OFFSET 4.9141 -1.269 0.3591
                    CHANNELS 6 Xposition Yposition Zposition Zrotation Xrotation Yrotation
                    JOINT lPinky2
                    {
                      OFFSET 3.1477 -1.685 0.8462
                      CHANNELS 6 Xposition Yposition Zposition Zrotation Xrotation Yrotation
                      JOINT lPinky2_End
                      {
                        OFFSET 0.8055 -1.585 0.7955
                        CHANNELS 6 Xposition Yposition Zposition Zrotation Xrotation Yrotation
                        End Site
                        {
                          OFFSET 0.0081 -0.0158 0.008
                        }
                      }
                    }
                  }
                }
              }
            }
          }
        }
        JOINT rCollar
        {
          OFFSET -1.7069 20.075 5.0056
          CHANNELS 6 Xposition Yposition Zposition Zrotation Xrotation Yrotation
          JOINT rShldr
          {
            OFFSET -13.6458 -0.047 -4.849
            CHANNELS 6 Xposition Yposition Zposition Zrotation Xrotation Yrotation
            JOINT rForeArm
            {
              OFFSET -28.3255 -0.9759 2.2888
              CHANNELS 6 Xposition Yposition Zposition Zrotation Xrotation Yrotation
              JOINT rHand
              {
                OFFSET -22.1583 -0.53 10.8316
                CHANNELS 6 Xposition Yposition Zposition Zrotation Xrotation Yrotation
                JOINT rThumb1
                {
                  OFFSET -0.786 0.112 2.5817
                  CHANNELS 6 Xposition Yposition Zposition Zrotation Xrotation Yrotation
                  JOINT rThumb2
                  {
                    OFFSET -0.3601 -0.878 4.2331
                    CHANNELS 6 Xposition Yposition Zposition Zrotation Xrotation Yrotation
                    JOINT rThumb2_End
                    {
                      OFFSET -1.8127 -1.216 2.2227
                      CHANNELS 6 Xposition Yposition Zposition Zrotation Xrotation Yrotation
                      End Site
                      {
                        OFFSET -0.0181 -0.0122 0.0222
                      }
                    }
                  }
                }
                JOINT rCarpal1
                {
                  OFFSET -0.9571 1.114 1.7695
                  CHANNELS 6 Xposition Yposition Zposition Zrotation Xrotation Yrotation
                  JOINT rIndex1
                  {
                    OFFSET -4.1246 0.487 4.1451
                    CHANNELS 6 Xposition Yposition Zposition Zrotation Xrotation Yrotation
                    JOINT rIndex2
                    {
                      OFFSET -3.4052 -1.454 2.7682
                      CHANNELS 6 Xposition Yposition Zposition Zrotation Xrotation Yrotation
                      JOINT rIndex2_End
                      {
                        OFFSET -1.4531 -1.795 1.2713
                        CHANNELS 6 Xposition Yposition Zposition Zrotation Xrotation Yrotation
                        End Site
                        {
                          OFFSET -0.0145 -0.018 0.0127
                        }
                      }
                    }
                  }
                  JOINT rMid1
                  {
                    OFFSET -5.6954 0.21 2.1184
                    CHANNELS 6 Xposition Yposition Zposition Zrotation Xrotation Yrotation
                    JOINT rMid2
                    {
                      OFFSET -3.9766 -1.54 2.3863
                      CHANNELS 6 Xposition Yposition Zposition Zrotation Xrotation Yrotation
                      JOINT rMid2_End
                      {
                        OFFSET -1.4042 -1.926 1.125
                        CHANNELS 6 Xposition Yposition Zposition Zrotation Xrotation Yrotation
                        End Site
                        {
                          OFFSET -0.014 -0.0193 0.0113
                        }
                      }
                    }
                  }
                }
                JOINT rCarpal2
                {
                  OFFSET -2.0956 0.66 -0.3894
                  CHANNELS 6 Xposition Yposition Zposition Zrotation Xrotation Yrotation
                  JOINT rRing1
                  {
                    OFFSET -5.0395 -0.09 2.4971
                    CHANNELS 6 Xposition Yposition Zposition Zrotation Xrotation Yrotation
                    JOINT rRing2
                    {
                      OFFSET -3.7921 -1.552 1.4806
                      CHANNELS 6 Xposition Yposition Zposition Zrotation Xrotation Yrotation
                      JOINT rRing2_End
                      {
                        OFFSET -1.4655 -1.808 0.9609
                        CHANNELS 6 Xposition Yposition Zposition Zrotation Xrotation Yrotation
                        End Site
                        {
                          OFFSET -0.0147 -0.0181 0.0096
                        }
                      }
                    }
                  }
                  JOINT rPinky1
                  {
                    OFFSET -4.9141 -1.269 0.3592
                    CHANNELS 6 Xposition Yposition Zposition Zrotation Xrotation Yrotation
                    JOINT rPinky2
                    {
                      OFFSET -3.1477 -1.685 0.8462
                      CHANNELS 6 Xposition Yposition Zposition Zrotation Xrotation Yrotation
                      JOINT rPinky2_End
                      {
                        OFFSET -0.8055 -1.585 0.7955
                        CHANNELS 6 Xposition Yposition Zposition Zrotation Xrotation Yrotation
                        End Site
                        {
                          OFFSET -0.0081 -0.0158 0.008
                        }
                      }
                    }
                  }
                }
              }
            }
          }
        }
      }
    }
  }
  JOINT lThigh
  {
    OFFSET 8.367 -8.2066 0.5982
    CHANNELS 6 Xposition Yposition Zposition Zrotation Xrotation Yrotation
    JOINT lShin
    {
      OFFSET 2.1923 -43.463 -0.4932
      CHANNELS 6 Xposition Yposition Zposition Zrotation Xrotation Yrotation
      JOINT lFoot
      {
        OFFSET 0.7333 -45.8593 -2.6451
        CHANNELS 6 Xposition Yposition Zposition Zrotation Xrotation Yrotation
        End Site
        {
          OFFSET 2.6618 -4.2699 12.3931
        }
      }
    }
  }
  JOINT rThigh
  {
    OFFSET -8.367 -8.2066 0.5982
    CHANNELS 6 Xposition Yposition Zposition Zrotation Xrotation Yrotation
    JOINT rShin
    {
      OFFSET -2.1923 -43.463 -0.4931
      CHANNELS 6 Xposition Yposition Zposition Zrotation Xrotation Yrotation
      JOINT rFoot
      {
        OFFSET -0.7333 -45.8593 -2.6451
        CHANNELS 6 Xposition Yposition Zposition Zrotation Xrotation Yrotation
        End Site
        {
          OFFSET -2.6618 -4.2699 12.3931
        }
      }
    }
  }
}
MOTION
Frames:	4
Frame Time:	0.0333333
0 90.174 2.4664 0 0 -0 0 -1.186 -1.5018 0 0 -0 0 9.964 0.2134 0 0 -0 0 13.134 -3.2573 0 0 -0 0 20.686 -1.6905 0 0 -0 0 7.238 -0.1237 0 0 -0 1.7069 20.075 5.0056 0 0 -0 13.6458 -0.047 -4.849 1.66051 0.0835086 5.75766 28.3255 -0.9759 2.2888 -0.0175111 0.895433 15.7816 22.1583 -0.53 10.8316 7.95139e-016 -1.98785e-016 -0 0.786 0.112 2.5817 5.46658e-016 -3.97569e-016 -0 0.3601 -0.878 4.2331 5.96354e-016 0 -0 1.8127 -1.216 2.2227 3.97569e-016 1.98785e-016 9.54166e-015 0.9571 1.114 1.7695 1.49089e-016 -3.97569e-016 -0 4.1246 0.487 4.1451 6.4605e-016 0 3.18055e-015 3.4052 -1.454 2.7682 5.96354e-016 0 3.18055e-015 1.4531 -1.795 1.2713 8.94531e-016 -1.98785e-016 6.36111e-015 5.6954 0.21 2.1184 6.4605e-016 0 3.18055e-015 3.9766 -1.54 2.3863 5.96354e-016 0 3.18055e-015 1.4042 -1.926 1.125 8.94531e-016 -1.98785e-016 6.36111e-015 2.0956 0.66 -0.3894 1.49089e-016 -3.97569e-016 -0 5.0395 -0.09 2.4971 6.4605e-016 0 3.18055e-015 3.7921 -1.552 1.4806 5.96354e-016 0 3.18055e-015 1.4655 -1.808 0.9609 8.94531e-016 -1.98785e-016 6.36111e-015 4.9141 -1.269 0.3591 6.4605e-016 0 3.18055e-015 3.1477 -1.685 0.8462 5.96354e-016 0 3.18055e-015 0.8055 -1.585 0.7955 8.94531e-016 -1.98785e-016 6.36111e-015 -1.7069 20.075 5.0056 0 0 -0 -13.6458 -0.047 -4.849 -1.4496 0.0636048 -5.0245 -28.3255 -0.9759 2.2888 -1.74811 1.20616 -16.8394 -22.1583 -0.53 10.8316 -1.19271e-015 1.98785e-016 -3.18055e-015 -0.786 0.112 2.5817 -3.97569e-016 1.98785e-016 -3.18055e-015 -0.3601 -0.878 4.2331 -2.98177e-016 1.98785e-016 -3.18055e-015 -1.8127 -1.216 2.2227 -2.98177e-016 3.97569e-016 -0 -0.9571 1.114 1.7695 4.96962e-016 0 -6.36111e-015 -4.1246 0.487 4.1451 -9.93923e-017 3.97569e-016 -0 -3.4052 -1.454 2.7682 -8.94531e-016 5.96354e-016 -0 -1.4531 -1.795 1.2713 -3.97569e-016 3.97569e-016 -0 -5.6954 0.21 2.1184 -9.93923e-017 3.97569e-016 -0 -3.9766 -1.54 2.3863 -8.94531e-016 5.96354e-016 -0 -1.4042 -1.926 1.125 -3.97569e-016 3.97569e-016 -0 -2.0956 0.66 -0.3894 4.96962e-016 0 -6.36111e-015 -5.0395 -0.09 2.4971 -9.93923e-017 3.97569e-016 -0 -3.7921 -1.552 1.4806 -8.94531e-016 5.96354e-016 -0 -1.4655 -1.808 0.9609 -3.97569e-016 3.97569e-016 -0 -4.9141 -1.269 0.3592 -9.93923e-017 3.97569e-016 -0 -3.1477 -1.685 0.8462 -8.94531e-016 5.96354e-016 -0 -0.8055 -1.585 0.7955 -3.97569e-016 3.97569e-016 -0 8.367 -8.2066 0.5982 -4.66115 -1.03232 0.120763 2.1923 -43.463 -0.4932 0.00990601 1.55097 0.177175 0.7333 -45.8593 -2.6451 4.65196 -0.54114 -0.255042 -8.367 -8.2066 0.5982 4.66115 -1.03222 -0.120763 -2.1923 -43.463 -0.4931 -0.00990459 1.5509 -0.177176 -0.7333 -45.8593 -2.6451 -4.65196 -0.541171 0.255041 
-0.770061 87.6972 3.80767 0 0.0223189 -0 0 -1.186 -1.5018 -0.157026 3.33205 -0.0631465 0 9.964 0.2134 -0.311158 6.66424 -0.117426 0 13.134 -3.2573 -0.311158 6.66425 -0.117426 0 20.686 -1.6905 6.09317e-006 -0.200432 -5.95907e-007 0 7.238 -0.1237 -1.41655e-007 -0.150486 8.63689e-010 1.7069 20.075 5.0056 -4.51638 -0.206871 -2.33105 13.6458 -0.047 -4.849 -35.9195 22.9681 -12.374 28.3255 -0.9759 2.2888 -6.29039 -12.6042 -0.886499 22.1583 -0.53 10.8316 -3.66208 1.44667 -0.0206241 0.786 0.112 2.5817 -4.96962e-015 0 3.18055e-015 0.3601 -0.878 4.2331 -7.95139e-016 3.18055e-015 -3.57812e-015 1.8127 -1.216 2.2227 -3.18055e-015 0 2.38542e-015 0.9571 1.114 1.7695 -4.96962e-015 0 3.18055e-015 4.1246 0.487 4.1451 -1.98785e-015 6.36111e-015 -7.95139e-016 3.4052 -1.454 2.7682 -2.18663e-015 0 2.38542e-015 1.4531 -1.795 1.2713 -1.78906e-015 3.18055e-015 1.19271e-015 5.6954 0.21 2.1184 -1.98785e-015 6.36111e-015 -7.95139e-016 3.9766 -1.54 2.3863 -2.18663e-015 0 2.38542e-015 1.4042 -1.926 1.125 -1.78906e-015 3.18055e-015 1.19271e-015 2.0956 0.66 -0.3894 -4.96962e-015 0 3.18055e-015 5.0395 -0.09 2.4971 -1.98785e-015 6.36111e-015 -7.95139e-016 3.7921 -1.552 1.4806 -2.18663e-015 0 2.38542e-015 1.4655 -1.808 0.9609 -1.78906e-015 3.18055e-015 1.19271e-015 4.9141 -1.269 0.3591 -1.98785e-015 6.36111e-015 -7.95139e-016 3.1477 -1.685 0.8462 -2.18663e-015 0 2.38542e-015 0.8055 -1.585 0.7955 -1.78906e-015 3.18055e-015 1.19271e-015 -1.7069 20.075 5.0056 4.51556 -0.206807 2.32924 -13.6458 -0.047 -4.849 36.1405 23.012 13.019 -28.3255 -0.9759 2.2888 4.28412 -12.8291 -0.576159 -22.1583 -0.53 10.8316 3.65112 1.46715 0.0506814 -0.786 0.112 2.5817 -2.98177e-015 -3.18055e-015 -7.95139e-016 -0.3601 -0.878 4.2331 -1.59028e-015 -6.36111e-015 2.78299e-015 -1.8127 -1.216 2.2227 -4.57205e-015 9.54166e-015 7.95139e-016 -0.9571 1.114 1.7695 -1.98785e-015 -3.18055e-015 -3.18055e-015 -4.1246 0.487 4.1451 -1.78906e-015 -3.18055e-015 4.77083e-015 -3.4052 -1.454 2.7682 -4.77083e-015 9.54166e-015 1.59028e-015 -1.4531 -1.795 1.2713 9.93923e-016 0 7.95139e-016 -5.6954 0.21 2.1184 -1.78906e-015 -3.18055e-015 4.77083e-015 -3.9766 -1.54 2.3863 -4.77083e-015 9.54166e-015 1.59028e-015 -1.4042 -1.926 1.125 9.93923e-016 0 7.95139e-016 -2.0956 0.66 -0.3894 -1.98785e-015 -3.18055e-015 -3.18055e-015 -5.0395 -0.09 2.4971 -1.78906e-015 -3.18055e-015 4.77083e-015 -3.7921 -1.552 1.4806 -4.77083e-015 9.54166e-015 1.59028e-015 -1.4655 -1.808 0.9609 9.93923e-016 0 7.95139e-016 -4.9141 -1.269 0.3592 -1.78906e-015 -3.18055e-015 4.77083e-015 -3.1477 -1.685 0.8462 -4.77083e-015 9.54166e-015 1.59028e-015 -0.8055 -1.585 0.7955 9.93923e-016 0 7.95139e-016 8.367 -8.2066 0.5982 4.45811 -9.11623 8.56791 2.1923 -43.463 -0.4932 1.81285 14.5069 -1.40782 0.7333 -45.8593 -2.6451 -4.3144 -10.4234 0.972173 -8.367 -8.2066 0.5982 2.52891 -4.61079 -6.93463 -2.1923 -43.463 -0.4931 1.69567 13.2511 -1.02892 -0.7333 -45.8593 -2.6451 3.93089 -10.0903 -1.19431 
-1.41159 85.6848 4.86809 0 0 -0 0 -1.186 -1.5018 -0.26431 5.8981 -0.135634 -2.22045e-016 9.964 0.2134 -0.518655 11.7967 -0.245713 -4.44089e-016 13.134 -3.2573 -0.518655 11.7967 -0.245713 0 20.686 -1.6905 2.47091e-006 -0.400505 -9.37033e-007 -4.44089e-016 7.238 -0.1237 5.94706e-008 -0.267537 -6.91143e-008 1.7069 20.075 5.0056 -8.08372 -0.251618 -4.15732 13.6458 -0.047 -4.849 -53.6824 36.2119 -31.8798 28.3255 -0.9759 2.2888 -16.6197 -20.304 -15.474 22.1583 -0.53 10.8316 -6.51219 2.57104 0.027313 0.786 0.112 2.5817 3.18055e-015 3.18055e-015 3.97569e-016 0.3601 -0.878 4.2331 2.38542e-015 6.36111e-015 3.57812e-015 1.8127 -1.216 2.2227 3.02944e-007 -9.38729e-007 -1.36489e-006 0.9571 1.114 1.7695 3.57812e-015 3.18055e-015 -3.97569e-016 4.1246 0.487 4.1451 -3.97569e-016 6.36111e-015 9.93923e-015 3.4052 -1.454 2.7682 1.98785e-015 3.18055e-015 1.98785e-015 1.4531 -1.795 1.2713 3.02944e-007 -9.38729e-007 -1.36489e-006 5.6954 0.21 2.1184 -3.97569e-016 6.36111e-015 9.93923e-015 3.9766 -1.54 2.3863 1.98785e-015 3.18055e-015 1.98785e-015 1.4042 -1.926 1.125 3.02944e-007 -9.38729e-007 -1.36489e-006 2.0956 0.66 -0.3894 3.57812e-015 3.18055e-015 -3.97569e-016 5.0395 -0.09 2.4971 -3.97569e-016 6.36111e-015 9.93923e-015 3.7921 -1.552 1.4806 1.98785e-015 3.18055e-015 1.98785e-015 1.4655 -1.808 0.9609 3.02944e-007 -9.38729e-007 -1.36489e-006 4.9141 -1.269 0.3591 -3.97569e-016 6.36111e-015 9.93923e-015 3.1477 -1.685 0.8462 1.98785e-015 3.18055e-015 1.98785e-015 0.8055 -1.585 0.7955 3.02944e-007 -9.38729e-007 -1.36489e-006 -1.7069 20.075 5.0056 8.08022 -0.25199 4.15383 -13.6458 -0.047 -4.849 53.9011 36.3214 32.479 -28.3255 -0.9759 2.2888 14.5359 -21.0514 13.796 -22.1583 -0.53 10.8316 6.49223 2.60876 0.0253967 -0.786 0.112 2.5817 -2.98177e-015 9.54166e-015 -2.78299e-015 -0.3601 -0.878 4.2331 -1.98785e-015 9.54166e-015 -1.59028e-015 -1.8127 -1.216 2.2227 7.95139e-016 -3.18055e-015 -0 -0.9571 1.114 1.7695 -3.57812e-015 3.18055e-015 -1.59028e-015 -4.1246 0.487 4.1451 -5.96354e-015 0 3.18055e-015 -3.4052 -1.454 2.7682 6.62086e-032 3.18055e-015 -1.19271e-015 -1.4531 -1.795 1.2713 -1.98785e-015 6.36111e-015 -1.98785e-015 -5.6954 0.21 2.1184 -5.96354e-015 0 3.18055e-015 -3.9766 -1.54 2.3863 6.62086e-032 3.18055e-015 -1.19271e-015 -1.4042 -1.926 1.125 -1.98785e-015 6.36111e-015 -1.98785e-015 -2.0956 0.66 -0.3894 -3.57812e-015 3.18055e-015 -1.59028e-015 -5.0395 -0.09 2.4971 -5.96354e-015 0 3.18055e-015 -3.7921 -1.552 1.4806 6.62086e-032 3.18055e-015 -1.19271e-015 -1.4655 -1.808 0.9609 -1.98785e-015 6.36111e-015 -1.98785e-015 -4.9141 -1.269 0.3592 -5.96354e-015 0 3.18055e-015 -3.1477 -1.685 0.8462 6.62086e-032 3.18055e-015 -1.19271e-015 -0.8055 -1.585 0.7955 -1.98785e-015 6.36111e-015 -1.98785e-015 8.367 -8.2066 0.5982 13.0997 -15.1774 15.4636 2.1923 -43.463 -0.4932 3.89354 24.6481 -2.79026 0.7333 -45.8593 -2.6451 -10.9841 -18.249 2.1143 -8.367 -8.2066 0.5982 0.221433 -7.81774 -12.3264 -2.1923 -43.463 -0.4931 3.29992 23.2551 -1.92287 -0.7333 -45.8593 -2.6451 10.165 -17.9628 -2.55006 
-1.50553 85.401 5.09402 -0 -0.15623 -0 0 -1.186 -1.5018 -0.278399 6.16764 -0.147527 -2.22045e-016 9.964 0.2134 -0.545501 12.3359 -0.267047 -4.44089e-016 13.134 -3.2573 -0.545501 12.3359 -0.267047 -8.88178e-016 20.686 -1.6905 5.71701e-006 -0.600681 -5.48682e-007 0 7.238 -0.1237 3.1902e-007 -0.28425 1.25849e-007 1.7069 20.075 5.0056 -8.7567 0.187317 -4.46973 13.6458 -0.047 -4.849 -55.2415 37.4303 -35.1377 28.3255 -0.9759 2.2888 -18.384 -21.1346 -17.6222 22.1583 -0.53 10.8316 -6.91965 2.73142 0.0387283 0.786 0.112 2.5817 9.93923e-016 3.18055e-015 1.98785e-015 0.3601 -0.878 4.2331 8.34896e-015 9.54166e-015 -7.95139e-016 1.8127 -1.216 2.2227 4.96962e-015 0 3.18055e-015 0.9571 1.114 1.7695 -2.38542e-015 0 1.19271e-015 4.1246 0.487 4.1451 8.15017e-015 9.54166e-015 8.74653e-015 3.4052 -1.454 2.7682 1.78906e-015 9.54166e-015 -3.97569e-016 1.4531 -1.795 1.2713 2.18663e-015 3.18055e-015 2.38542e-015 5.6954 0.21 2.1184 8.15017e-015 9.54166e-015 8.74653e-015 3.9766 -1.54 2.3863 1.78906e-015 9.54166e-015 -3.97569e-016 1.4042 -1.926 1.125 2.18663e-015 3.18055e-015 2.38542e-015 2.0956 0.66 -0.3894 -2.38542e-015 0 1.19271e-015 5.0395 -0.09 2.4971 8.15017e-015 9.54166e-015 8.74653e-015 3.7921 -1.552 1.4806 1.78906e-015 9.54166e-015 -3.97569e-016 1.4655 -1.808 0.9609 2.18663e-015 3.18055e-015 2.38542e-015 4.9141 -1.269 0.3591 8.15017e-015 9.54166e-015 8.74653e-015 3.1477 -1.685 0.8462 1.78906e-015 9.54166e-015 -3.97569e-016 0.8055 -1.585 0.7955 2.18663e-015 3.18055e-015 2.38542e-015 -1.7069 20.075 5.0056 8.7449 0.184994 4.46485 -13.6458 -0.047 -4.849 55.4565 37.5519 35.7366 -28.3255 -0.9759 2.2888 16.3043 -21.9599 15.9304 -22.1583 -0.53 10.8316 6.89833 2.77169 0.0171639 -0.786 0.112 2.5817 5.80228e-006 -4.057e-007 2.8363e-007 -0.3601 -0.878 4.2331 -5.36332e-008 -2.30342e-006 4.74797e-007 -1.8127 -1.216 2.2227 2.99485e-007 9.1431e-007 -1.38911e-006 -0.9571 1.114 1.7695 1.98785e-015 0 1.19271e-015 -4.1246 0.487 4.1451 5.80228e-006 -4.057e-007 2.8363e-007 -3.4052 -1.454 2.7682 -5.36332e-008 -2.30342e-006 4.74797e-007 -1.4531 -1.795 1.2713 2.99485e-007 9.1431e-007 -1.38911e-006 -5.6954 0.21 2.1184 5.80228e-006 -4.057e-007 2.8363e-007 -3.9766 -1.54 2.3863 -5.36332e-008 -2.30342e-006 4.74797e-007 -1.4042 -1.926 1.125 2.99485e-007 9.1431e-007 -1.38911e-006 -2.0956 0.66 -0.3894 1.98785e-015 0 1.19271e-015 -5.0395 -0.09 2.4971 5.80228e-006 -4.057e-007 2.8363e-007 -3.7921 -1.552 1.4806 -5.36332e-008 -2.30342e-006 4.74797e-007 -1.4655 -1.808 0.9609 2.99485e-007 9.1431e-007 -1.38911e-006 -4.9141 -1.269 0.3592 5.80228e-006 -4.057e-007 2.8363e-007 -3.1477 -1.685 0.8462 -5.36332e-008 -2.30342e-006 4.74797e-007 -0.8055 -1.585 0.7955 2.99485e-007 9.1431e-007 -1.38911e-006 8.367 -8.2066 0.5982 14.4407 -15.7878 16.484 2.1923 -43.463 -0.4932 4.25109 26.0682 -3.01253 0.7333 -45.8593 -2.6451 -11.9123 -19.3613 2.29675 -8.367 -8.2066 0.5982 -0.148025 -8.01115 -13.0998 -2.1923 -43.463 -0.4931 3.55291 24.6813 -2.0666 -0.7333 -45.8593 -2.6451 11.0212 -19.0984 -2.76521 
